<svg xmlns="http://www.w3.org/2000/svg" width="1000" height="650" viewBox="0 0 1000 650">
<rect width="100%" height="100%" fill="#FFFFFF"/>
<style>text{font-family:Segoe UI,Arial,sans-serif;fill:#172033}.axis{stroke:#94A3B8;stroke-width:1}.grid{stroke:#E2E8F0;stroke-width:1}.small{font-size:13px}.tick{font-size:12px;fill:#475569}.label{font-size:15px;font-weight:600}.title{font-size:24px;font-weight:700}.subtitle{font-size:13px;fill:#64748B}</style>
<text class="title" x="105" y="38">Suspect chamber time / PM-age trend</text>
<text class="subtitle" x="105" y="59">EQ02_C2; each series normalized to 0–1</text>
<line class="axis" x1="105" y1="565" x2="945" y2="565"/>
<line class="axis" x1="105" y1="565" x2="105" y2="75"/>
<line class="grid" x1="105" y1="565.0" x2="945" y2="565.0"/>
<text class="tick" x="95" y="569.0" text-anchor="end">0</text>
<line class="grid" x1="105" y1="467.0" x2="945" y2="467.0"/>
<text class="tick" x="95" y="471.0" text-anchor="end">0.21</text>
<line class="grid" x1="105" y1="369.0" x2="945" y2="369.0"/>
<text class="tick" x="95" y="373.0" text-anchor="end">0.42</text>
<line class="grid" x1="105" y1="271.0" x2="945" y2="271.0"/>
<text class="tick" x="95" y="275.0" text-anchor="end">0.63</text>
<line class="grid" x1="105" y1="173.0" x2="945" y2="173.0"/>
<text class="tick" x="95" y="177.0" text-anchor="end">0.84</text>
<line class="grid" x1="105" y1="75.0" x2="945" y2="75.0"/>
<text class="tick" x="95" y="79.0" text-anchor="end">1.1</text>
<text class="tick" x="105.0" y="588" text-anchor="middle">1</text>
<text class="tick" x="273.0" y="588" text-anchor="middle">4.4</text>
<text class="tick" x="441.0" y="588" text-anchor="middle">7.8</text>
<text class="tick" x="609.0" y="588" text-anchor="middle">11</text>
<text class="tick" x="777.0" y="588" text-anchor="middle">15</text>
<text class="tick" x="945.0" y="588" text-anchor="middle">18</text>
<text class="label" x="525.0" y="625" text-anchor="middle">Sequential shot in chamber</text>
<text class="label" transform="translate(27 320.0) rotate(-90)" text-anchor="middle">Normalized response</text>
<polyline points="105.0,565.0 154.4,433.1 203.8,505.2 253.2,528.4 302.6,492.0 352.1,510.0 401.5,503.2 450.9,456.3 500.3,468.1 549.7,450.5 599.1,98.3 648.5,105.0 697.9,420.5 747.4,258.4 796.8,552.7 846.2,553.5 895.6,512.6 945.0,494.3" fill="none" stroke="#DC2626" stroke-width="3"/>
<line x1="600" y1="55" x2="622" y2="55" stroke="#DC2626" stroke-width="3"/><text class="small" x="627" y="60">Edge void</text>
<polyline points="105.0,544.7 154.4,550.8 203.8,388.8 253.2,407.5 302.6,314.5 352.1,372.5 401.5,452.7 450.9,355.5 500.3,187.8 549.7,276.2 599.1,153.7 648.5,181.0 697.9,288.7 747.4,98.3 796.8,486.7 846.2,511.7 895.6,565.0 945.0,379.7" fill="none" stroke="#2563EB" stroke-width="3"/>
<line x1="715" y1="55" x2="737" y2="55" stroke="#2563EB" stroke-width="3"/><text class="small" x="742" y="60">Pump-down</text>
<polyline points="105.0,565.0 154.4,529.1 203.8,493.2 253.2,457.3 302.6,421.4 352.1,385.5 401.5,349.6 450.9,313.7 500.3,277.8 549.7,241.9 599.1,206.0 648.5,170.1 697.9,134.2 747.4,98.3 796.8,565.0 846.2,529.1 895.6,493.2 945.0,457.3" fill="none" stroke="#F59E0B" stroke-width="3"/>
<line x1="845" y1="55" x2="867" y2="55" stroke="#F59E0B" stroke-width="3"/><text class="small" x="872" y="60">PM age</text>
</svg>