<svg xmlns="http://www.w3.org/2000/svg" width="1000" height="650" viewBox="0 0 1000 650">
<rect width="100%" height="100%" fill="#FFFFFF"/>
<style>text{font-family:Segoe UI,Arial,sans-serif;fill:#172033}.axis{stroke:#94A3B8;stroke-width:1}.grid{stroke:#E2E8F0;stroke-width:1}.small{font-size:13px}.tick{font-size:12px;fill:#475569}.label{font-size:15px;font-weight:600}.title{font-size:24px;font-weight:700}.subtitle{font-size:13px;fill:#64748B}</style>
<text class="title" x="105" y="38">Bootstrap process effects on Edge Void</text>
<text class="subtitle" x="105" y="59">High − Low effect; 95% whole-plot bootstrap interval</text>
<line class="axis" x1="105" y1="565" x2="945" y2="565"/>
<line class="axis" x1="105" y1="565" x2="105" y2="75"/>
<line class="grid" x1="105" y1="565.0" x2="945" y2="565.0"/>
<text class="tick" x="95" y="569.0" text-anchor="end">0</text>
<line class="grid" x1="105" y1="467.0" x2="945" y2="467.0"/>
<text class="tick" x="95" y="471.0" text-anchor="end">1</text>
<line class="grid" x1="105" y1="369.0" x2="945" y2="369.0"/>
<text class="tick" x="95" y="373.0" text-anchor="end">2</text>
<line class="grid" x1="105" y1="271.0" x2="945" y2="271.0"/>
<text class="tick" x="95" y="275.0" text-anchor="end">3</text>
<line class="grid" x1="105" y1="173.0" x2="945" y2="173.0"/>
<text class="tick" x="95" y="177.0" text-anchor="end">4</text>
<line class="grid" x1="105" y1="75.0" x2="945" y2="75.0"/>
<text class="tick" x="95" y="79.0" text-anchor="end">5</text>
<text class="tick" x="105.0" y="588" text-anchor="middle">-0.15</text>
<text class="tick" x="273.0" y="588" text-anchor="middle">0.11</text>
<text class="tick" x="441.0" y="588" text-anchor="middle">0.38</text>
<text class="tick" x="609.0" y="588" text-anchor="middle">0.64</text>
<text class="tick" x="777.0" y="588" text-anchor="middle">0.91</text>
<text class="tick" x="945.0" y="588" text-anchor="middle">1.2</text>
<text class="label" x="525.0" y="625" text-anchor="middle">Effect on Edge Void (percentage-point)</text>
<text class="label" transform="translate(27 320.0) rotate(-90)" text-anchor="middle"></text>
<line x1="200.4863739977732" y1="75" x2="200.4863739977732" y2="565" stroke="#334155" stroke-width="2" stroke-dasharray="7 5"/>
<text class="label" x="110" y="159.0">Vacuum base P</text>
<line x1="418.46132806690804" y1="173.0" x2="576.5404658718617" y2="173.0" stroke="#2563EB" stroke-width="5"/>
<line x1="418.46132806690804" y1="164.0" x2="418.46132806690804" y2="182.0" stroke="#2563EB" stroke-width="2"/>
<line x1="576.5404658718617" y1="164.0" x2="576.5404658718617" y2="182.0" stroke="#2563EB" stroke-width="2"/>
<circle cx="506.5837575904177" cy="173.0" r="8" fill="#2563EB"/>
<text class="label" x="110" y="257.0">Zone range</text>
<line x1="807.0275607776068" y1="271.0" x2="868.6109008017813" y2="271.0" stroke="#2563EB" stroke-width="5"/>
<line x1="807.0275607776068" y1="262.0" x2="807.0275607776068" y2="280.0" stroke="#2563EB" stroke-width="2"/>
<line x1="868.6109008017813" y1="262.0" x2="868.6109008017813" y2="280.0" stroke="#2563EB" stroke-width="2"/>
<circle cx="831.0577766499579" cy="271.0" r="8" fill="#2563EB"/>
<text class="label" x="110" y="355.0">Closing speed</text>
<line x1="334.7547697655836" y1="369.0" x2="387.7253354641471" y2="369.0" stroke="#2563EB" stroke-width="5"/>
<line x1="334.7547697655836" y1="360.0" x2="334.7547697655836" y2="378.0" stroke="#2563EB" stroke-width="2"/>
<line x1="387.7253354641471" y1="360.0" x2="387.7253354641471" y2="378.0" stroke="#2563EB" stroke-width="2"/>
<circle cx="356.16643800505864" cy="369.0" r="8" fill="#2563EB"/>
<text class="label" x="110" y="453.0">Vacuum × Zone</text>
<line x1="137.8409216320732" y1="467.0" x2="412.64092159290675" y2="467.0" stroke="#F59E0B" stroke-width="5"/>
<line x1="137.8409216320732" y1="458.0" x2="137.8409216320732" y2="476.0" stroke="#F59E0B" stroke-width="2"/>
<line x1="412.64092159290675" y1="458.0" x2="412.64092159290675" y2="476.0" stroke="#F59E0B" stroke-width="2"/>
<circle cx="275.24092161249" cy="467.0" r="8" fill="#F59E0B"/>
</svg>